<svg width="239" height="239" viewBox="0 0 239 239" fill="none" xmlns="http://www.w3.org/2000/svg">
<g clip-path="url(#clip0_36_474)">
<path d="M199.387 45.4481L155.722 1.76728C154.59 0.636284 153.055 0 151.455 0H43.8795C40.5468 0 37.8464 2.70039 37.8464 6.03304V232.967C37.8464 236.3 40.5468 239 43.8795 239H195.12C198.453 239 201.154 236.3 201.154 232.967V49.7138C201.154 48.1139 200.518 46.5799 199.387 45.4481ZM180.558 43.6808H157.487V20.6024L180.558 43.6808ZM49.9125 226.934V12.0661H145.421V49.7138C145.421 53.0465 148.122 55.7469 151.454 55.7469H189.087V226.935L49.9125 226.934Z" fill="#F2B705"/>
<path d="M169.913 75.6455H106.896C103.563 75.6455 100.863 78.3458 100.863 81.6785C100.863 85.0111 103.563 87.7115 106.896 87.7115H169.913C173.246 87.7115 175.946 85.0111 175.946 81.6785C175.946 78.3458 173.246 75.6455 169.913 75.6455Z" fill="#F2B705"/>
<path d="M169.913 113.467H106.896C103.563 113.467 100.863 116.167 100.863 119.5C100.863 122.833 103.563 125.533 106.896 125.533H169.913C173.246 125.533 175.946 122.833 175.946 119.5C175.946 116.167 173.246 113.467 169.913 113.467Z" fill="#F2B705"/>
<path d="M169.913 151.288H106.896C103.563 151.288 100.863 153.989 100.863 157.322C100.863 160.654 103.563 163.355 106.896 163.355H169.913C173.246 163.355 175.946 160.654 175.946 157.322C175.946 153.99 173.246 151.288 169.913 151.288Z" fill="#F2B705"/>
<path d="M169.913 189.111H106.896C103.563 189.111 100.863 191.811 100.863 195.144C100.863 198.476 103.563 201.177 106.896 201.177H169.913C173.246 201.177 175.946 198.476 175.946 195.144C175.946 191.811 173.246 189.111 169.913 189.111Z" fill="#F2B705"/>
<g clip-path="url(#clip1_36_474)">
<path d="M73.5405 183.008C73.5339 183.013 73.3721 183.034 73.1796 183.053C70.6399 183.304 68.4305 184.512 66.9364 186.464C66.0811 187.581 65.4971 188.965 65.3068 190.329C65.1055 191.769 65.2893 193.256 65.8318 194.583C66.4989 196.207 67.608 197.538 69.1174 198.524C69.2683 198.623 69.393 198.712 69.3908 198.725C69.3908 198.735 69.3471 198.756 69.2946 198.771C67.6343 199.196 66.663 199.538 65.5452 200.089C64.1014 200.799 62.8961 201.677 61.9818 202.685C61.1724 203.576 60.6102 204.539 60.2952 205.568C60.0874 206.248 59.9518 207.3 60.0196 207.718C60.0327 207.802 60.0589 208.094 60.0764 208.366C60.0961 208.639 60.1158 208.894 60.1224 208.93L60.1333 209H73.9999C81.6277 209 87.8686 208.998 87.8708 208.994C87.8883 208.932 87.9868 207.579 87.9868 207.374C87.9889 207.063 87.9364 206.571 87.8664 206.216C87.383 203.756 85.4405 201.555 82.4546 200.089C81.3783 199.559 80.1008 199.105 78.8933 198.82C78.6177 198.754 78.5871 198.742 78.6046 198.714C78.6111 198.703 78.703 198.64 78.808 198.575C80.7921 197.326 82.1964 195.288 82.6274 193.026C82.7368 192.454 82.7608 192.181 82.7586 191.47C82.7586 190.735 82.728 190.42 82.5968 189.797C82.0477 187.207 80.3064 185.038 77.8499 183.877C76.9049 183.431 75.9796 183.175 74.853 183.051C74.5511 183.017 73.5646 182.985 73.5405 183.008Z" fill="#F2B705"/>
</g>
<g clip-path="url(#clip2_36_474)">
<path d="M73.5405 144.008C73.5339 144.013 73.3721 144.034 73.1796 144.053C70.6399 144.304 68.4305 145.512 66.9364 147.464C66.0811 148.581 65.4971 149.965 65.3068 151.329C65.1055 152.769 65.2893 154.256 65.8318 155.583C66.4989 157.207 67.608 158.538 69.1174 159.524C69.2683 159.623 69.393 159.712 69.3908 159.725C69.3908 159.735 69.3471 159.756 69.2946 159.771C67.6343 160.196 66.663 160.538 65.5452 161.089C64.1014 161.799 62.8961 162.677 61.9818 163.685C61.1724 164.576 60.6102 165.539 60.2952 166.568C60.0874 167.248 59.9518 168.3 60.0196 168.718C60.0327 168.802 60.0589 169.094 60.0764 169.366C60.0961 169.639 60.1158 169.894 60.1224 169.93L60.1333 170H73.9999C81.6277 170 87.8686 169.998 87.8708 169.994C87.8883 169.932 87.9868 168.579 87.9868 168.374C87.9889 168.063 87.9364 167.571 87.8664 167.216C87.383 164.756 85.4405 162.555 82.4546 161.089C81.3783 160.559 80.1008 160.105 78.8933 159.82C78.6177 159.754 78.5871 159.742 78.6046 159.714C78.6111 159.703 78.703 159.64 78.808 159.575C80.7921 158.326 82.1964 156.288 82.6274 154.026C82.7368 153.454 82.7608 153.181 82.7586 152.47C82.7586 151.735 82.728 151.42 82.5968 150.797C82.0477 148.207 80.3064 146.038 77.8499 144.877C76.9049 144.431 75.9796 144.175 74.853 144.051C74.5511 144.017 73.5646 143.985 73.5405 144.008Z" fill="#F2B705"/>
</g>
<g clip-path="url(#clip3_36_474)">
<path d="M73.5405 107.008C73.5339 107.013 73.3721 107.034 73.1796 107.053C70.6399 107.304 68.4305 108.512 66.9364 110.464C66.0811 111.581 65.4971 112.965 65.3068 114.329C65.1055 115.769 65.2893 117.256 65.8318 118.583C66.4989 120.207 67.608 121.538 69.1174 122.524C69.2683 122.623 69.393 122.712 69.3908 122.725C69.3908 122.735 69.3471 122.756 69.2946 122.771C67.6343 123.196 66.663 123.538 65.5452 124.089C64.1014 124.799 62.8961 125.677 61.9818 126.685C61.1724 127.576 60.6102 128.539 60.2952 129.568C60.0874 130.248 59.9518 131.3 60.0196 131.718C60.0327 131.802 60.0589 132.094 60.0764 132.366C60.0961 132.639 60.1158 132.894 60.1224 132.93L60.1333 133H73.9999C81.6277 133 87.8686 132.998 87.8708 132.994C87.8883 132.932 87.9868 131.579 87.9868 131.374C87.9889 131.063 87.9364 130.571 87.8664 130.216C87.383 127.756 85.4405 125.555 82.4546 124.089C81.3783 123.559 80.1008 123.105 78.8933 122.82C78.6177 122.754 78.5871 122.742 78.6046 122.714C78.6111 122.703 78.703 122.64 78.808 122.575C80.7921 121.326 82.1964 119.288 82.6274 117.026C82.7368 116.454 82.7608 116.181 82.7586 115.47C82.7586 114.735 82.728 114.42 82.5968 113.797C82.0477 111.207 80.3064 109.038 77.8499 107.877C76.9049 107.431 75.9796 107.175 74.853 107.051C74.5511 107.017 73.5646 106.985 73.5405 107.008Z" fill="#F2B705"/>
</g>
<g clip-path="url(#clip4_36_474)">
<path d="M73.5405 69.0084C73.5339 69.0127 73.3721 69.0338 73.1796 69.0528C70.6399 69.3041 68.4305 70.5123 66.9364 72.4639C66.0811 73.5812 65.4971 74.9646 65.3068 76.329C65.1055 77.7695 65.2893 79.2564 65.8318 80.5828C66.4989 82.207 67.608 83.5376 69.1174 84.524C69.2683 84.6232 69.393 84.7119 69.3908 84.7246C69.3908 84.7352 69.3471 84.7563 69.2946 84.7711C67.6343 85.1956 66.663 85.5378 65.5452 86.089C64.1014 86.7987 62.8961 87.6773 61.9818 88.6848C61.1724 89.5761 60.6102 90.5392 60.2952 91.5678C60.0874 92.2479 59.9518 93.2998 60.0196 93.718C60.0327 93.8024 60.0589 94.0939 60.0764 94.3664C60.0961 94.6388 60.1158 94.8944 60.1224 94.9303L60.1333 95H73.9999C81.6277 95 87.8686 94.9979 87.8708 94.9937C87.8883 94.9324 87.9868 93.5786 87.9868 93.3737C87.9889 93.0632 87.9364 92.5711 87.8664 92.2162C87.383 89.7556 85.4405 87.5548 82.4546 86.089C81.3783 85.5589 80.1008 85.1048 78.8933 84.8197C78.6177 84.7542 78.5871 84.7415 78.6046 84.7141C78.6111 84.7035 78.703 84.6401 78.808 84.5747C80.7921 83.3264 82.1964 81.2882 82.6274 79.0262C82.7368 78.4538 82.7608 78.1813 82.7586 77.4695C82.7586 76.7345 82.728 76.4198 82.5968 75.7967C82.0477 73.2073 80.3064 71.0382 77.8499 69.8765C76.9049 69.4309 75.9796 69.1753 74.853 69.0507C74.5511 69.0169 73.5646 68.9852 73.5405 69.0084Z" fill="#F2B705"/>
</g>
</g>
<defs>
<clipPath id="clip0_36_474">
<rect width="239" height="239" fill="white"/>
</clipPath>
<clipPath id="clip1_36_474">
<rect width="28" height="26" fill="white" transform="translate(60 183)"/>
</clipPath>
<clipPath id="clip2_36_474">
<rect width="28" height="26" fill="white" transform="translate(60 144)"/>
</clipPath>
<clipPath id="clip3_36_474">
<rect width="28" height="26" fill="white" transform="translate(60 107)"/>
</clipPath>
<clipPath id="clip4_36_474">
<rect width="28" height="26" fill="white" transform="translate(60 69)"/>
</clipPath>
</defs>
</svg>
