<svg width="239" height="239" viewBox="0 0 239 239" fill="none" xmlns="http://www.w3.org/2000/svg">
<g clip-path="url(#clip0_36_463)">
<path d="M199.387 45.4481L155.722 1.76728C154.59 0.636284 153.055 0 151.455 0H43.8795C40.5468 0 37.8464 2.70039 37.8464 6.03304V232.967C37.8464 236.3 40.5468 239 43.8795 239H195.12C198.453 239 201.154 236.3 201.154 232.967V49.7138C201.154 48.1139 200.518 46.5799 199.387 45.4481ZM180.558 43.6808H157.487V20.6024L180.558 43.6808ZM49.9125 226.934V12.0661H145.421V49.7138C145.421 53.0465 148.122 55.7469 151.454 55.7469H189.087V226.935L49.9125 226.934Z" fill="#F20505"/>
<path d="M169.913 75.6455H106.896C103.563 75.6455 100.863 78.3458 100.863 81.6785C100.863 85.0111 103.563 87.7115 106.896 87.7115H169.913C173.246 87.7115 175.946 85.0111 175.946 81.6785C175.946 78.3458 173.246 75.6455 169.913 75.6455Z" fill="#F20505"/>
<path d="M81.6899 75.6455H75.1203V69.071C75.1203 65.7384 72.4199 63.038 69.0872 63.038C65.7546 63.038 63.0542 65.7384 63.0542 69.071V81.6785C63.0542 85.0111 65.7546 87.7115 69.0872 87.7115H81.6899C85.0225 87.7115 87.7229 85.0111 87.7229 81.6785C87.7229 78.3458 85.0225 75.6455 81.6899 75.6455Z" fill="#F20505"/>
<path d="M169.913 113.467H106.896C103.563 113.467 100.863 116.167 100.863 119.5C100.863 122.833 103.563 125.533 106.896 125.533H169.913C173.246 125.533 175.946 122.833 175.946 119.5C175.946 116.167 173.246 113.467 169.913 113.467Z" fill="#F20505"/>
<path d="M81.6899 113.467H75.1203V106.893C75.1203 103.561 72.4199 100.86 69.0872 100.86C65.7546 100.86 63.0542 103.561 63.0542 106.893V119.5C63.0542 122.833 65.7546 125.533 69.0872 125.533H81.6899C85.0225 125.533 87.7229 122.833 87.7229 119.5C87.7229 116.167 85.0225 113.467 81.6899 113.467Z" fill="#F20505"/>
<path d="M169.913 151.288H106.896C103.563 151.288 100.863 153.989 100.863 157.322C100.863 160.654 103.563 163.355 106.896 163.355H169.913C173.246 163.355 175.946 160.654 175.946 157.322C175.946 153.99 173.246 151.288 169.913 151.288Z" fill="#F20505"/>
<path d="M81.6899 151.288H75.1203V144.715C75.1203 141.382 72.4199 138.682 69.0872 138.682C65.7546 138.682 63.0542 141.382 63.0542 144.715V157.322C63.0542 160.654 65.7546 163.355 69.0872 163.355H81.6899C85.0225 163.355 87.7229 160.654 87.7229 157.322C87.7229 153.99 85.0225 151.288 81.6899 151.288Z" fill="#F20505"/>
<path d="M169.913 189.111H106.896C103.563 189.111 100.863 191.811 100.863 195.144C100.863 198.476 103.563 201.177 106.896 201.177H169.913C173.246 201.177 175.946 198.476 175.946 195.144C175.946 191.811 173.246 189.111 169.913 189.111Z" fill="#F20505"/>
<path d="M81.6899 189.111H75.1203V182.536C75.1203 179.204 72.4199 176.503 69.0872 176.503C65.7546 176.503 63.0542 179.204 63.0542 182.536V195.144C63.0542 198.476 65.7546 201.177 69.0872 201.177H81.6899C85.0225 201.177 87.7229 198.476 87.7229 195.144C87.7229 191.811 85.0225 189.111 81.6899 189.111Z" fill="#F20505"/>
</g>
<defs>
<clipPath id="clip0_36_463">
<rect width="239" height="239" fill="white"/>
</clipPath>
</defs>
</svg>
