<svg width="262" height="249" viewBox="0 0 262 249" fill="none" xmlns="http://www.w3.org/2000/svg">
<g clip-path="url(#clip0_36_459)">
<path d="M126.682 0.0763245C126.621 0.116776 125.106 0.319046 123.305 0.501099C99.5406 2.90817 78.8672 14.4783 64.887 33.1684C56.8837 43.8688 51.4186 57.1178 49.6378 70.1847C47.7547 83.9798 49.4741 98.2199 54.5503 110.923C60.7933 126.478 71.1709 139.221 85.2944 148.667C86.7067 149.618 87.8734 150.467 87.853 150.589C87.853 150.69 87.4436 150.892 86.9523 151.034C71.4165 155.1 62.3284 158.376 51.8689 163.656C38.3595 170.452 27.0812 178.867 18.5253 188.515C10.9519 197.051 5.6914 206.275 2.7439 216.126C0.799365 222.639 -0.469698 232.712 0.164834 236.717C0.287646 237.526 0.533271 240.318 0.697021 242.927C0.88124 245.537 1.06546 247.984 1.12686 248.328L1.22921 248.995H130.981C202.355 248.995 260.753 248.975 260.773 248.935C260.937 248.348 261.858 235.382 261.858 233.42C261.878 230.447 261.387 225.734 260.732 222.336C256.208 198.771 238.032 177.694 210.092 163.656C200.022 158.579 188.068 154.23 176.769 151.499C174.19 150.872 173.904 150.751 174.067 150.488C174.129 150.387 174.988 149.78 175.971 149.153C194.536 137.198 207.677 117.679 211.709 96.0152C212.733 90.5335 212.958 87.9242 212.938 81.1075C212.938 74.0684 212.651 71.0545 211.423 65.0874C206.285 40.2885 189.992 19.5149 167.006 8.3898C158.163 4.12181 149.505 1.67429 138.963 0.480865C136.139 0.157227 126.907 -0.146179 126.682 0.0763245Z" fill="#0487D9"/>
</g>
<defs>
<clipPath id="clip0_36_459">
<rect width="262" height="249" fill="white"/>
</clipPath>
</defs>
</svg>
