<svg width="523" height="518" viewBox="0 0 523 518" fill="none" xmlns="http://www.w3.org/2000/svg">
<rect x="260" y="69" width="185" height="185" fill="#F2B705"/>
<path d="M323.106 83.5086H382.106C370.106 68.5085 358.907 69.3304 382.106 28.5085C405.305 -12.3133 296.939 -6.27416 323.106 27.5085C349.272 61.2912 333.273 75.5086 323.106 83.5086Z" fill="#F2B705"/>
<path d="M381.28 249H322.28C334.28 264 345.479 263.178 322.28 304C299.082 344.822 407.447 338.783 381.28 305C355.114 271.217 371.114 257 381.28 249Z" fill="#F2B705"/>
<path d="M439 129.106V188.106C454 176.106 453.178 164.907 494 188.106C534.822 211.305 528.783 102.939 495 129.106C461.217 155.272 447 139.273 439 129.106Z" fill="#F2B705"/>
<path d="M268.509 187.28V128.28C253.509 140.28 254.33 151.479 213.509 128.28C172.687 105.082 178.726 213.447 212.509 187.28C246.291 161.114 260.509 177.114 268.509 187.28Z" fill="#F2B705"/>
<rect x="75" y="69" width="185" height="185" fill="#055902"/>
<path d="M138.106 83.5086H197.106C185.106 68.5085 173.907 69.3304 197.106 28.5085C220.305 -12.3133 111.939 -6.27416 138.106 27.5085C164.272 61.2912 148.273 75.5086 138.106 83.5086Z" fill="#055902"/>
<path d="M196.28 249H137.28C149.28 264 160.479 263.178 137.28 304C114.082 344.822 222.447 338.783 196.28 305C170.114 271.217 186.114 257 196.28 249Z" fill="#055902"/>
<path d="M254 129.106V188.106C269 176.106 268.178 164.907 309 188.106C349.822 211.305 343.783 102.939 310 129.106C276.217 155.272 262 139.273 254 129.106Z" fill="#055902"/>
<path d="M83.5086 187.28V128.28C68.5085 140.28 69.3304 151.479 28.5085 128.28C-12.3133 105.082 -6.27416 213.447 27.5085 187.28C61.2912 161.114 75.5086 177.114 83.5086 187.28Z" fill="#055902"/>
<rect x="260" y="254" width="185" height="185" fill="#0487D9"/>
<path d="M323.106 268.509H382.106C370.106 253.509 358.907 254.33 382.106 213.509C405.305 172.687 296.939 178.726 323.106 212.509C349.272 246.291 333.273 260.509 323.106 268.509Z" fill="#0487D9"/>
<path d="M381.28 434H322.28C334.28 449 345.479 448.178 322.28 489C299.082 529.822 407.447 523.783 381.28 490C355.114 456.217 371.114 442 381.28 434Z" fill="#0487D9"/>
<path d="M439 314.106V373.106C454 361.106 453.178 349.907 494 373.106C534.822 396.305 528.783 287.939 495 314.106C461.217 340.272 447 324.273 439 314.106Z" fill="#0487D9"/>
<path d="M268.509 372.28V313.28C253.509 325.28 254.33 336.479 213.509 313.28C172.687 290.082 178.726 398.447 212.509 372.28C246.291 346.114 260.509 362.114 268.509 372.28Z" fill="#0487D9"/>
<path d="M76 254H261V439H76V254Z" fill="#F20505"/>
<path d="M139.106 268.509H198.106C186.106 253.509 174.907 254.33 198.106 213.509C221.305 172.687 112.939 178.726 139.106 212.509C165.272 246.291 149.273 260.509 139.106 268.509Z" fill="#F20505"/>
<path d="M197.28 434H138.28C150.28 449 161.479 448.178 138.28 489C115.082 529.822 223.447 523.783 197.28 490C171.114 456.217 187.114 442 197.28 434Z" fill="#F20505"/>
<path d="M255 314.106V373.106C270 361.106 269.178 349.907 310 373.106C350.822 396.305 344.783 287.939 311 314.106C277.217 340.272 263 324.273 255 314.106Z" fill="#F20505"/>
<path d="M84.5086 372.28V313.28C69.5085 325.28 70.3304 336.479 29.5085 313.28C-11.3133 290.082 -5.27416 398.447 28.5085 372.28C62.2912 346.114 76.5086 362.114 84.5086 372.28Z" fill="#F20505"/>
</svg>
